<svg width="120" height="120" viewBox="0 0 32 32" fill="none" xmlns="http://www.w3.org/2000/svg">
  <defs>
    <linearGradient id="logoGradient" x1="0%" y1="0%" x2="100%" y2="100%">
      <stop offset="0%" stop-color="#a78bfa" />
      <stop offset="50%" stop-color="#8b5cf6" />
      <stop offset="100%" stop-color="#7c3aed" />
    </linearGradient>
  </defs>
  <path d="M16 2L28 9V23L16 30L4 23V9L16 2Z" stroke="url(#logoGradient)" stroke-width="1.5" fill="none" />

  <!-- Connection lines FIRST (behind circles) -->
  <line x1="16" y1="8" x2="16" y2="16" stroke="#8b5cf6" stroke-width="1.5" opacity="0.8" />
  <line x1="16" y1="16" x2="22.9" y2="12" stroke="#8b5cf6" stroke-width="1.5" opacity="0.8" />
  <line x1="16" y1="16" x2="22.9" y2="20" stroke="#8b5cf6" stroke-width="1.5" opacity="0.8" />
  <line x1="16" y1="16" x2="16" y2="24" stroke="#8b5cf6" stroke-width="1.5" opacity="0.8" />
  <line x1="16" y1="16" x2="9.1" y2="20" stroke="#8b5cf6" stroke-width="1.5" opacity="0.8" />
  <line x1="16" y1="16" x2="9.1" y2="12" stroke="#8b5cf6" stroke-width="1.5" opacity="0.8" />

  <!-- Circles ON TOP (cover line endpoints) -->
  <circle cx="16" cy="16" r="3" fill="url(#logoGradient)" />
  <circle cx="16" cy="8" r="2" fill="url(#logoGradient)" />
  <circle cx="22.9" cy="12" r="2" fill="url(#logoGradient)"  />
  <circle cx="22.9" cy="20" r="2" fill="url(#logoGradient)" />
  <circle cx="16" cy="24" r="2" fill="url(#logoGradient)" />
  <circle cx="9.1" cy="20" r="2" fill="url(#logoGradient)" />
  <circle cx="9.1" cy="12" r="2" fill="url(#logoGradient)" />
</svg>
