<svg width="120" height="120" viewBox="0 0 32 32" fill="none" xmlns="http://www.w3.org/2000/svg">
  <defs>
    <linearGradient id="logoGradient" x1="0%" y1="0%" x2="100%" y2="100%">
      <stop offset="0%" stop-color="#a78bfa" />
      <stop offset="50%" stop-color="#8b5cf6" />
      <stop offset="100%" stop-color="#7c3aed" />
    </linearGradient>
  </defs>
  <path d="M16 2L28 9V23L16 30L4 23V9L16 2Z" stroke="url(#logoGradient)" stroke-width="1.5" fill="none" />
  <circle cx="16" cy="16" r="3" fill="url(#logoGradient)" />
  <circle cx="16" cy="8" r="2" fill="url(#logoGradient)" opacity="0.8" />
  <circle cx="22.9" cy="12" r="2" fill="url(#logoGradient)" opacity="0.8" />
  <circle cx="22.9" cy="20" r="2" fill="url(#logoGradient)" opacity="0.8" />
  <circle cx="16" cy="24" r="2" fill="url(#logoGradient)" opacity="0.8" />
  <circle cx="9.1" cy="20" r="2" fill="url(#logoGradient)" opacity="0.8" />
  <circle cx="9.1" cy="12" r="2" fill="url(#logoGradient)" opacity="0.8" />
  <line x1="16" y1="13" x2="16" y2="8" stroke="url(#logoGradient)" stroke-width="1" opacity="0.6" />
  <line x1="18.6" y1="14.5" x2="22.9" y2="12" stroke="url(#logoGradient)" stroke-width="1" opacity="0.6" />
  <line x1="18.6" y1="17.5" x2="22.9" y2="20" stroke="url(#logoGradient)" stroke-width="1" opacity="0.6" />
  <line x1="16" y1="19" x2="16" y2="24" stroke="url(#logoGradient)" stroke-width="1" opacity="0.6" />
  <line x1="13.4" y1="17.5" x2="9.1" y2="20" stroke="url(#logoGradient)" stroke-width="1" opacity="0.6" />
  <line x1="13.4" y1="14.5" x2="9.1" y2="12" stroke="url(#logoGradient)" stroke-width="1" opacity="0.6" />
</svg>
