<svg width="120" height="120" viewBox="0 0 32 32" fill="none" xmlns="http://www.w3.org/2000/svg">
  <defs>
    <linearGradient id="pulpoGrad" x1="0%" y1="0%" x2="100%" y2="100%">
      <stop offset="0%" stop-color="#a78bfa" />
      <stop offset="50%" stop-color="#8b5cf6" />
      <stop offset="100%" stop-color="#7c3aed" />
    </linearGradient>
  </defs>

  <!-- 8 tentacles with terminal nodes -->
  <path d="M16 17 Q17 21, 21 24" stroke="#8b5cf6" stroke-width="1.4" stroke-linecap="round" fill="none" opacity="0.7" />
  <path d="M16 17 Q15 21, 11 24" stroke="#8b5cf6" stroke-width="1.4" stroke-linecap="round" fill="none" opacity="0.7" />
  <path d="M16 17 Q20 19, 25 20" stroke="#8b5cf6" stroke-width="1.4" stroke-linecap="round" fill="none" opacity="0.7" />
  <path d="M16 17 Q12 19, 7 20" stroke="#8b5cf6" stroke-width="1.4" stroke-linecap="round" fill="none" opacity="0.7" />
  <path d="M16 17 Q21 18, 26 16" stroke="#8b5cf6" stroke-width="1.4" stroke-linecap="round" fill="none" opacity="0.6" />
  <path d="M16 17 Q11 18, 6 16" stroke="#8b5cf6" stroke-width="1.4" stroke-linecap="round" fill="none" opacity="0.6" />
  <path d="M16 17 Q19 21, 17 26" stroke="#8b5cf6" stroke-width="1.4" stroke-linecap="round" fill="none" opacity="0.6" />
  <path d="M16 17 Q13 21, 15 26" stroke="#8b5cf6" stroke-width="1.4" stroke-linecap="round" fill="none" opacity="0.6" />

  <!-- Terminal nodes -->
  <circle cx="21" cy="24" r="1.5" fill="url(#pulpoGrad)" />
  <circle cx="11" cy="24" r="1.5" fill="url(#pulpoGrad)" />
  <circle cx="25" cy="20" r="1.5" fill="url(#pulpoGrad)" />
  <circle cx="7" cy="20" r="1.5" fill="url(#pulpoGrad)" />
  <circle cx="26" cy="16" r="1.5" fill="url(#pulpoGrad)" />
  <circle cx="6" cy="16" r="1.5" fill="url(#pulpoGrad)" />
  <circle cx="17" cy="26" r="1.5" fill="url(#pulpoGrad)" />
  <circle cx="15" cy="26" r="1.5" fill="url(#pulpoGrad)" />

  <!-- Octopus head -->
  <ellipse cx="16" cy="12" rx="7" ry="7.5" fill="url(#pulpoGrad)" />

  <!-- Eyes -->
  <ellipse cx="13" cy="12.5" rx="1.8" ry="2" fill="#1a1025" />
  <ellipse cx="19" cy="12.5" rx="1.8" ry="2" fill="#1a1025" />
  <circle cx="13.5" cy="11.8" r="0.7" fill="#e0d4ff" />
  <circle cx="19.5" cy="11.8" r="0.7" fill="#e0d4ff" />
</svg>
